<?xml version="1.0" encoding="utf-8"?>
<!-- Generator: Adobe Illustrator 16.0.0, SVG Export Plug-In . SVG Version: 6.00 Build 0)  -->
<!DOCTYPE svg PUBLIC "-//W3C//DTD SVG 1.1//EN" "http://www.w3.org/Graphics/SVG/1.1/DTD/svg11.dtd">
<svg version="1.1" id="Layer_1" xmlns="http://www.w3.org/2000/svg" xmlns:xlink="http://www.w3.org/1999/xlink" x="0px" y="0px"
	 width="76px" height="17px" viewBox="0 0 76 17" enable-background="new 0 0 76 17" xml:space="preserve">
<g>
	<path d="M6.776,2.783C6.145,2.585,5.581,2.486,5.082,2.486c-0.411,0-0.741,0.073-0.99,0.22c-0.25,0.147-0.374,0.367-0.374,0.66
		c0,0.323,0.168,0.572,0.506,0.748c0.337,0.176,0.887,0.374,1.65,0.594c0.836,0.25,1.525,0.495,2.068,0.737
		C8.484,5.687,8.954,6.047,9.35,6.523s0.594,1.104,0.594,1.881c0,1.173-0.451,2.086-1.353,2.739
		c-0.902,0.653-2.057,0.979-3.465,0.979c-0.968,0-1.899-0.143-2.794-0.429C1.437,11.407,0.66,11,0,10.472l1.1-2.288
		c0.601,0.47,1.272,0.833,2.013,1.089C3.854,9.53,4.554,9.658,5.214,9.658c0.455,0,0.817-0.077,1.089-0.231
		C6.574,9.273,6.71,9.042,6.71,8.734c0-0.337-0.172-0.602-0.517-0.792S5.294,7.546,4.532,7.326C3.725,7.092,3.054,6.857,2.519,6.622
		c-0.536-0.234-0.994-0.59-1.375-1.067C0.762,5.079,0.572,4.459,0.572,3.696c0-1.173,0.44-2.083,1.32-2.728
		C2.772,0.323,3.886,0,5.236,0c0.807,0,1.613,0.114,2.42,0.341c0.807,0.228,1.54,0.554,2.2,0.979L8.69,3.63
		C8.044,3.264,7.406,2.981,6.776,2.783z"/>
	<path d="M21.263,0.803c0.843,0.506,1.496,1.221,1.958,2.145c0.462,0.924,0.693,1.988,0.693,3.19c0,1.188-0.228,2.233-0.682,3.135
		c-0.455,0.902-1.097,1.603-1.925,2.101c-0.829,0.499-1.793,0.748-2.893,0.748c-0.822,0-1.551-0.157-2.189-0.473
		c-0.638-0.315-1.177-0.773-1.617-1.375v5.984H11.22V0.154h3.388v1.738c0.425-0.601,0.957-1.059,1.595-1.375
		c0.638-0.315,1.353-0.473,2.145-0.473C19.448,0.044,20.419,0.297,21.263,0.803z M19.668,8.393c0.542-0.608,0.814-1.397,0.814-2.365
		c0-0.953-0.271-1.734-0.814-2.343c-0.543-0.608-1.247-0.913-2.112-0.913c-0.866,0-1.573,0.304-2.123,0.913
		c-0.55,0.609-0.825,1.39-0.825,2.343c0,0.983,0.275,1.775,0.825,2.376c0.55,0.602,1.257,0.902,2.123,0.902
		C18.421,9.306,19.125,9.002,19.668,8.393z"/>
	<path d="M31.922,11.99v-1.386c-0.396,0.499-0.91,0.88-1.54,1.144c-0.631,0.264-1.357,0.396-2.178,0.396
		c-1.247,0-2.237-0.341-2.97-1.023c-0.734-0.682-1.1-1.573-1.1-2.673c0-1.114,0.392-1.983,1.177-2.607s1.896-0.942,3.333-0.957H31.9
		v-0.22c0-0.63-0.209-1.118-0.627-1.463c-0.418-0.344-1.03-0.517-1.837-0.517c-1.1,0-2.273,0.345-3.52,1.034L24.86,1.386
		c0.938-0.469,1.818-0.814,2.64-1.034c0.821-0.22,1.724-0.33,2.706-0.33c1.584,0,2.812,0.374,3.685,1.122s1.316,1.79,1.331,3.124
		l0.022,7.722H31.922z M30.976,9.218c0.513-0.337,0.821-0.763,0.924-1.276V6.886h-2.662c-0.66,0-1.148,0.106-1.463,0.319
		c-0.316,0.213-0.473,0.554-0.473,1.023c0,0.455,0.165,0.818,0.495,1.089c0.33,0.271,0.781,0.407,1.353,0.407
		C29.854,9.724,30.462,9.556,30.976,9.218z"/>
	<path d="M42.328,2.926c-0.851,0-1.544,0.29-2.079,0.869c-0.536,0.58-0.803,1.346-0.803,2.299c0,0.954,0.264,1.727,0.792,2.321
		c0.528,0.594,1.203,0.891,2.024,0.891c1.232,0,2.148-0.462,2.75-1.386l2.332,1.584c-0.499,0.836-1.199,1.481-2.101,1.936
		c-0.902,0.455-1.954,0.682-3.157,0.682c-1.188,0-2.237-0.249-3.146-0.748c-0.91-0.498-1.617-1.202-2.123-2.112
		c-0.506-0.909-0.759-1.958-0.759-3.146c0-1.203,0.253-2.262,0.759-3.179c0.506-0.916,1.217-1.628,2.134-2.134
		s1.977-0.759,3.179-0.759c1.129,0,2.134,0.216,3.014,0.649c0.88,0.433,1.584,1.045,2.112,1.837l-2.288,1.65
		C44.292,3.344,43.413,2.926,42.328,2.926z"/>
	<path d="M57.408,1.694c0.99,1.1,1.485,2.633,1.485,4.598c0,0.352-0.008,0.624-0.022,0.814h-8.492c0.19,0.748,0.557,1.331,1.1,1.749
		c0.542,0.418,1.195,0.627,1.958,0.627c0.557,0,1.092-0.106,1.606-0.319c0.513-0.212,0.975-0.524,1.386-0.935l1.782,1.804
		c-0.602,0.675-1.331,1.192-2.189,1.551c-0.858,0.36-1.815,0.539-2.871,0.539c-1.247,0-2.335-0.249-3.267-0.748
		c-0.931-0.498-1.65-1.202-2.156-2.112c-0.506-0.909-0.759-1.958-0.759-3.146c0-1.203,0.256-2.262,0.77-3.179
		c0.513-0.916,1.232-1.628,2.156-2.134s1.98-0.759,3.168-0.759C54.969,0.044,56.418,0.594,57.408,1.694z M55.703,5.104
		c-0.03-0.777-0.279-1.4-0.748-1.87c-0.47-0.469-1.093-0.704-1.87-0.704c-0.733,0-1.346,0.231-1.837,0.693
		c-0.492,0.462-0.803,1.089-0.935,1.881H55.703z"/>
	<path fill="#DC9916" d="M62.182,9.174c0.315,0.323,0.473,0.741,0.473,1.254c0,0.514-0.158,0.935-0.473,1.265
		s-0.723,0.495-1.221,0.495c-0.484,0-0.888-0.169-1.21-0.506c-0.323-0.337-0.484-0.755-0.484-1.254c0-0.513,0.161-0.931,0.484-1.254
		s0.726-0.484,1.21-0.484C61.459,8.69,61.866,8.852,62.182,9.174z"/>
	<path d="M62.896,0.154h3.872l2.178,3.586l2.31-3.586h3.696L71.19,5.918l4.026,6.072h-3.894l-2.376-3.872l-2.596,3.872h-3.74
		l4.092-6.05L62.896,0.154z"/>
</g>
</svg>
